<?xml version="1.0" encoding="UTF-8" standalone="no"?>
<!DOCTYPE svg PUBLIC "-//W3C//DTD SVG 1.1//EN" "http://www.w3.org/Graphics/SVG/1.1/DTD/svg11.dtd">
<svg width="100%" height="100%" viewBox="0 0 24 24" version="1.1" xmlns="http://www.w3.org/2000/svg" xmlns:xlink="http://www.w3.org/1999/xlink" xml:space="preserve" xmlns:serif="http://www.serif.com/" style="fill-rule:evenodd;clip-rule:evenodd;stroke-linejoin:round;stroke-miterlimit:2;">
    <g transform="matrix(1,0,0,1,-3,0)">
        <path d="M14,12L10,8L10,11L4,10.969L4,13L10,13L10,16" style="fill-rule:nonzero;"/>
    </g>
    <g transform="matrix(1,0,0,1,9,0)">
        <path d="M14,12L10,8L10,11L4,10.969L4,13L10,13L10,16" style="fill-rule:nonzero;"/>
    </g>
    <g transform="matrix(1,0,0,1,-2,0)">
        <path d="M18,9L20,9L20,6C20,4.89 19.1,4 18,4L6,4C4.903,4 4,4.903 4,6L4,9L6,9L6,6L18,6L18,9Z" style="fill-rule:nonzero;"/>
    </g>
    <g transform="matrix(1,0,0,-1,-2,24)">
        <path d="M18,9L20,9L20,6C20,4.89 19.1,4 18,4L6,4C4.903,4 4,4.903 4,6L4,9L6,9L6,6L18,6L18,9Z" style="fill-rule:nonzero;"/>
    </g>
</svg>
